<svg width="134" height="40" viewBox="0 0 134 40" fill="none" xmlns="http://www.w3.org/2000/svg">
<path d="M129.037 40H4.96296C2.1837 40 0 37.8 0 35V5C0 2.2 2.1837 0 4.96296 0H129.037C131.816 0 134 2.2 134 5V35C134 37.8 131.816 40 129.037 40Z" fill="black"/>
<path fill-rule="evenodd" clip-rule="evenodd" d="M4.96296 0H129.037C131.816 0 134 2.3 134 5V35C134 37.8 131.816 40 129.037 40H4.96296C2.1837 40 0 37.8 0 35V5C0 2.3 2.1837 0 4.96296 0ZM133.206 5C133.206 2.7 131.32 0.8 129.037 0.8H4.96296C2.68 0.8 0.794074 2.7 0.794074 5V35C0.794074 37.3 2.68 39.2 4.96296 39.2H129.037C131.32 39.2 133.206 37.3 133.206 35V5Z" fill="#A6A6A6"/>
<path fill-rule="evenodd" clip-rule="evenodd" d="M46.354 12.2004C46.8503 11.7004 47.0488 11.0004 47.0488 10.2004V9.80039H44.1703V10.6004H46.354C46.354 11.1004 46.1555 11.5004 45.8577 11.8004C45.3614 12.3004 44.8651 12.5004 44.1703 12.5004C43.5747 12.5004 43.0784 12.2004 42.5822 11.8004C42.0859 11.4004 41.8873 10.8004 41.8873 10.1004C41.8873 9.40039 42.0859 8.80039 42.5822 8.40039C42.9792 7.90039 43.5747 7.70039 44.1703 7.70039C44.8651 7.70039 45.3614 7.90039 45.7584 8.40039L46.2547 7.90039C46.0562 7.60039 45.7584 7.40039 45.3614 7.20039C44.9644 7.00039 44.5673 6.90039 44.1703 6.90039C43.277 6.90039 42.5822 7.20039 41.9866 7.80039C41.391 8.40039 41.0933 9.10039 41.0933 10.0004C41.0933 10.9004 41.391 11.6004 41.9866 12.2004C42.5822 12.8004 43.277 13.1004 44.1703 13.1004C45.0636 13.1004 45.7584 12.8004 46.354 12.2004ZM48.9347 7.70039H51.6147V7.00039H48.1407V13.0004H51.6147V12.2004H48.9347V10.3004H51.4162V9.60039H48.9347V7.70039ZM54.8903 13.0004H54.0962V7.70039H52.4088V7.00039H56.5777V7.70039H54.8903V13.0004ZM59.4562 7.00039V13.0004H60.2503V7.00039H59.4562ZM63.5259 13.0004H62.831V7.70039H61.1436V7.00039H65.2133V7.70039H63.5259V13.0004ZM70.871 13.1004C71.7644 13.1004 72.4592 12.8004 73.0547 12.2004C73.6503 11.6004 73.9481 10.9004 73.9481 10.0004C73.9481 9.10039 73.6503 8.40039 73.0547 7.80039C72.4592 7.20039 71.7644 6.90039 70.871 6.90039C69.9777 6.90039 69.2829 7.20039 68.6873 7.80039C68.0918 8.40039 67.794 9.10039 67.794 10.0004C67.794 10.9004 68.0918 11.6004 68.6873 12.2004C69.2829 12.8004 69.9777 13.1004 70.871 13.1004ZM69.2829 11.7004C69.6799 12.1004 70.2755 12.4004 70.871 12.4004C71.4666 12.4004 72.0622 12.2004 72.4592 11.7004C72.8562 11.3004 73.154 10.7004 73.154 10.0004C73.154 9.30039 72.9555 8.70039 72.4592 8.30039C72.0622 7.90039 71.4666 7.60039 70.871 7.60039C70.2755 7.60039 69.6799 7.80039 69.2829 8.30039C68.8859 8.70039 68.5881 9.30039 68.5881 10.0004C68.5881 10.7004 68.7866 11.3004 69.2829 11.7004ZM75.0399 7.00039V13.0004H75.7347V8.10039L78.8118 13.0004H79.6059V7.00039H78.8118V11.7004L75.9333 7.00039H75.0399Z" fill="white"/>
<path fill-rule="evenodd" clip-rule="evenodd" d="M47.3468 23.0996V24.8996H51.6149C51.5157 25.8996 51.1186 26.6996 50.6223 27.1996C50.0268 27.7996 49.0342 28.4996 47.3468 28.4996C44.6668 28.4996 42.6816 26.3996 42.6816 23.6996C42.6816 20.9996 44.766 18.8996 47.3468 18.8996C48.7364 18.8996 49.8282 19.4996 50.6223 20.1996L51.9127 18.8996C50.8208 17.8996 49.4312 17.0996 47.446 17.0996C43.8727 17.0996 40.7957 20.0996 40.7957 23.6996C40.7957 27.2996 43.8727 30.2996 47.446 30.2996C49.4312 30.2996 50.8208 29.6996 52.012 28.3996C53.2031 27.1996 53.6001 25.4996 53.6001 24.1996V24.1996C53.6001 23.7996 53.6001 23.3996 53.5008 23.0996H47.3468ZM58.3645 21.7996C55.9823 21.7996 54.0964 23.5996 54.0964 26.0996C54.0964 28.4996 55.9823 30.3996 58.3645 30.3996C60.7468 30.3996 62.6327 28.5996 62.6327 26.0996C62.6327 23.4996 60.7468 21.7996 58.3645 21.7996ZM63.3275 26.0996C63.3275 23.5996 65.2134 21.7996 67.5957 21.7996C69.9779 21.7996 71.8638 23.4996 71.8638 26.0996C71.8638 28.5996 69.9779 30.3996 67.5957 30.3996C65.2134 30.3996 63.3275 28.4996 63.3275 26.0996ZM65.2134 25.9996C65.2134 27.4996 66.3053 28.5996 67.5957 28.5996C68.886 28.5996 69.9779 27.4996 69.9779 25.9996C69.9779 24.3996 68.886 23.3996 67.5957 23.3996C66.3053 23.3996 65.2134 24.4996 65.2134 25.9996ZM55.9823 25.9996C55.9823 27.4996 57.0742 28.5996 58.3645 28.5996C59.6549 28.5996 60.7468 27.4996 60.7468 25.9996C60.7468 24.3996 59.6549 23.3996 58.3645 23.3996C57.0742 23.3996 55.9823 24.4996 55.9823 25.9996ZM88.8371 21.7996C91.0208 21.7996 92.0134 23.4996 92.4105 24.4996L92.609 24.9996L86.9512 27.3996C87.4475 28.2996 88.0431 28.6996 89.0357 28.6996C90.0282 28.6996 90.6238 28.1996 91.1201 27.4996L92.5097 28.4996C92.1127 29.1996 90.9216 30.3996 89.0357 30.3996C86.6534 30.3996 84.8668 28.4996 84.8668 26.0996C84.8668 23.4996 86.6534 21.7996 88.8371 21.7996ZM86.6534 25.8996C86.6534 24.2996 87.9438 23.3996 88.8371 23.3996C89.532 23.3996 90.2268 23.7996 90.4253 24.2996L86.6534 25.8996ZM83.8742 29.9996H81.9882V17.4996H83.8742V29.9996ZM79.0105 22.6996C78.5142 22.1996 77.7201 21.6996 76.7275 21.6996C74.6431 21.6996 72.6579 23.5996 72.6579 25.9996C72.6579 28.3996 74.5438 30.1996 76.7275 30.1996C77.7201 30.1996 78.5142 29.6996 78.9112 29.1996H79.0105V29.7996C79.0105 31.3996 78.1171 32.2996 76.7275 32.2996C75.6357 32.2996 74.8416 31.4996 74.6431 30.7996L73.0549 31.4996C73.5512 32.5996 74.7423 33.9996 76.8268 33.9996C79.0105 33.9996 80.7971 32.6996 80.7971 29.5996V21.9996H79.0105V22.6996ZM74.4445 25.9996C74.4445 27.4996 75.5364 28.5996 76.8268 28.5996C78.1171 28.5996 79.1097 27.4996 79.1097 25.9996C79.1097 24.4996 78.1171 23.3996 76.8268 23.3996C75.5364 23.3996 74.4445 24.4996 74.4445 25.9996ZM101.046 17.4996H96.5794V29.9996H98.4653V25.2996H101.046C103.13 25.2996 105.116 23.7996 105.116 21.3996C105.116 18.9996 103.13 17.4996 101.046 17.4996ZM98.4653 23.4996H101.145C102.436 23.4996 103.23 22.3996 103.329 21.2996C103.329 20.3996 102.535 19.1996 101.145 19.1996H98.4653V23.4996ZM112.56 21.6996C111.17 21.6996 109.781 22.2996 109.285 23.5996L110.972 24.2996C111.369 23.5996 111.965 23.3996 112.659 23.3996C113.652 23.3996 114.545 23.9996 114.645 24.9996V25.0996C114.347 24.8996 113.553 24.5996 112.759 24.5996C110.972 24.5996 109.185 25.5996 109.185 27.3996C109.185 29.0996 110.674 30.1996 112.262 30.1996C113.553 30.1996 114.148 29.5996 114.645 28.9996H114.744V29.9996H116.53V25.1996C116.332 22.9996 114.645 21.6996 112.56 21.6996ZM110.873 27.4996C110.873 28.2996 111.766 28.5996 112.362 28.5996C113.354 28.5996 114.347 27.7996 114.545 26.5996C114.495 26.5794 114.446 26.5592 114.397 26.5392C113.965 26.3612 113.572 26.1996 112.858 26.1996C111.965 26.1996 110.873 26.4996 110.873 27.4996ZM122.784 21.9996L120.699 27.3996H120.6L118.416 21.9996H116.431L119.707 29.5996L117.821 33.7996H119.707L124.769 21.9996H122.784ZM107.994 29.9996H106.108V17.4996H107.994V29.9996Z" fill="white"/>
<path d="M10.3231 7.5C10.0253 7.8 9.92603 8.3 9.92603 8.9V31C9.92603 31.6 10.1245 32.1 10.4223 32.4L10.5216 32.5L22.8297 20.1V19.9L10.3231 7.5Z" fill="url(#paint0_linear_8668_519)"/>
<path d="M26.8001 24.2988L22.7305 20.1988V19.8988L26.8001 15.7988L26.8994 15.8988L31.7631 18.6988C33.1527 19.4988 33.1527 20.7988 31.7631 21.5988L26.8001 24.2988Z" fill="url(#paint1_linear_8668_519)"/>
<path d="M26.8993 24.2L22.7304 20L10.323 32.5C10.8193 33 11.5141 33 12.4074 32.6L26.8993 24.2Z" fill="url(#paint2_linear_8668_519)"/>
<path d="M26.8993 15.7986L12.4074 7.49865C11.5141 6.99865 10.8193 7.09865 10.323 7.59865L22.7304 19.9986L26.8993 15.7986Z" fill="url(#paint3_linear_8668_519)"/>
<path opacity="0.2" d="M26.8 24.0996L12.4074 32.2996C11.6134 32.7996 10.9186 32.6996 10.4223 32.2996L10.323 32.3996L10.4223 32.4996C10.9186 32.8996 11.6134 32.9996 12.4074 32.4996L26.8 24.0996Z" fill="black"/>
<path opacity="0.12" fill-rule="evenodd" clip-rule="evenodd" d="M26.8001 24.1L31.7631 21.3C32.3586 20.9 32.7557 20.5 32.7557 20C32.7557 20.5 32.4579 21 31.7631 21.4L26.8994 24.2L26.8001 24.1ZM9.94394 31.307C9.98397 31.725 10.0956 32.0708 10.3231 32.3H10.3327C10.3614 32.3354 10.3913 32.3688 10.4223 32.4V32.3H10.3327C10.134 32.0548 9.99204 31.7114 9.94394 31.307ZM9.94394 31.307C9.93156 31.1778 9.92603 31.0417 9.92603 30.9V31C9.92603 31.1056 9.93218 31.2081 9.94394 31.307Z" fill="black"/>
<path opacity="0.25" d="M12.4075 7.59929L31.7631 18.6993C32.3586 19.0993 32.7557 19.4993 32.7557 19.9993C32.7557 19.4993 32.4579 18.9993 31.7631 18.5993L12.4075 7.49929C11.0179 6.69929 9.92603 7.29929 9.92603 8.89929V8.99929C9.92603 7.49929 11.0179 6.79929 12.4075 7.59929Z" fill="white"/>
<defs>
<linearGradient id="paint0_linear_8668_519" x1="17.3076" y1="-7.4275" x2="-2.43314" y2="-2.12946" gradientUnits="userSpaceOnUse">
<stop stop-color="#00A0FF"/>
<stop offset="0.007" stop-color="#00A1FF"/>
<stop offset="0.26" stop-color="#00BEFF"/>
<stop offset="0.512" stop-color="#00D2FF"/>
<stop offset="0.76" stop-color="#00DFFF"/>
<stop offset="1" stop-color="#00E3FF"/>
</linearGradient>
<linearGradient id="paint1_linear_8668_519" x1="33.5835" y1="9.86808" x2="9.56571" y2="9.86808" gradientUnits="userSpaceOnUse">
<stop stop-color="#FFE000"/>
<stop offset="0.409" stop-color="#FFBD00"/>
<stop offset="0.775" stop-color="#FFA500"/>
<stop offset="1" stop-color="#FF9C00"/>
</linearGradient>
<linearGradient id="paint2_linear_8668_519" x1="10.0083" y1="13.514" x2="-6.01318" y2="40.2133" gradientUnits="userSpaceOnUse">
<stop stop-color="#FF3A44"/>
<stop offset="1" stop-color="#C31162"/>
</linearGradient>
<linearGradient id="paint3_linear_8668_519" x1="0.677058" y1="4.07819" x2="7.77563" y2="16.0183" gradientUnits="userSpaceOnUse">
<stop stop-color="#32A071"/>
<stop offset="0.069" stop-color="#2DA771"/>
<stop offset="0.476" stop-color="#15CF74"/>
<stop offset="0.801" stop-color="#06E775"/>
<stop offset="1" stop-color="#00F076"/>
</linearGradient>
</defs>
</svg>
